<mxfile host="app.diagrams.net" agent="Mozilla/5.0 (Windows NT 10.0; Win64; x64) AppleWebKit/537.36 (KHTML, like Gecko) Chrome/134.0.0.0 Safari/537.36" version="26.1.3">
  <diagram name="Page-1" id="ZSVnLYaPisJ-L3LaeQyS">
    <mxGraphModel dx="1195" dy="677" grid="1" gridSize="10" guides="1" tooltips="1" connect="1" arrows="1" fold="1" page="1" pageScale="1" pageWidth="827" pageHeight="1169" math="0" shadow="0">
      <root>
        <mxCell id="0" />
        <mxCell id="1" parent="0" />
        <mxCell id="7P4M7pMutVrMYfom8Spt-69" value="&lt;div&gt;&lt;br&gt;&lt;/div&gt;&lt;div&gt;&lt;br&gt;&lt;/div&gt;&lt;div&gt;&lt;br&gt;&lt;/div&gt;&lt;div&gt;Bucket&lt;/div&gt;" style="ellipse;whiteSpace=wrap;html=1;aspect=fixed;" vertex="1" parent="1">
          <mxGeometry x="511" y="100.00000000000001" width="80" height="80" as="geometry" />
        </mxCell>
        <mxCell id="7P4M7pMutVrMYfom8Spt-63" value="Client" style="ellipse;whiteSpace=wrap;html=1;" vertex="1" parent="1">
          <mxGeometry x="340" y="356.33" width="60" height="40" as="geometry" />
        </mxCell>
        <mxCell id="7P4M7pMutVrMYfom8Spt-62" value="&lt;div&gt;&lt;br&gt;&lt;/div&gt;&lt;div&gt;&lt;br&gt;&lt;/div&gt;&lt;div&gt;&lt;br&gt;&lt;/div&gt;Worker" style="ellipse;whiteSpace=wrap;html=1;aspect=fixed;" vertex="1" parent="1">
          <mxGeometry x="440.03" y="260" width="80" height="80" as="geometry" />
        </mxCell>
        <mxCell id="7P4M7pMutVrMYfom8Spt-1" value="" style="ellipse;whiteSpace=wrap;html=1;aspect=fixed;" vertex="1" parent="1">
          <mxGeometry x="310" y="130" width="100" height="100" as="geometry" />
        </mxCell>
        <mxCell id="7P4M7pMutVrMYfom8Spt-2" value="" style="shape=cylinder3;whiteSpace=wrap;html=1;boundedLbl=1;backgroundOutline=1;size=15;" vertex="1" parent="1">
          <mxGeometry x="340" y="146.67" width="40" height="53.33" as="geometry" />
        </mxCell>
        <mxCell id="7P4M7pMutVrMYfom8Spt-4" value="Server" style="text;html=1;align=center;verticalAlign=middle;whiteSpace=wrap;rounded=0;" vertex="1" parent="1">
          <mxGeometry x="330" y="200" width="60" height="30" as="geometry" />
        </mxCell>
        <mxCell id="7P4M7pMutVrMYfom8Spt-34" value="Connect" style="endArrow=classic;startArrow=none;html=1;rounded=0;startFill=0;endFill=1;exitX=0.5;exitY=0;exitDx=0;exitDy=0;" edge="1" parent="1" source="7P4M7pMutVrMYfom8Spt-46" target="7P4M7pMutVrMYfom8Spt-1">
          <mxGeometry width="50" height="50" relative="1" as="geometry">
            <mxPoint x="360" y="269.9999999999999" as="sourcePoint" />
            <mxPoint x="325" y="280" as="targetPoint" />
          </mxGeometry>
        </mxCell>
        <mxCell id="7P4M7pMutVrMYfom8Spt-46" value="Client" style="ellipse;whiteSpace=wrap;html=1;" vertex="1" parent="1">
          <mxGeometry x="330" y="346.33" width="60" height="40" as="geometry" />
        </mxCell>
        <mxCell id="7P4M7pMutVrMYfom8Spt-49" value="" style="endArrow=classic;html=1;rounded=0;" edge="1" parent="1" source="7P4M7pMutVrMYfom8Spt-1" target="7P4M7pMutVrMYfom8Spt-53">
          <mxGeometry relative="1" as="geometry">
            <mxPoint x="150" y="180" as="sourcePoint" />
            <mxPoint x="250" y="180" as="targetPoint" />
          </mxGeometry>
        </mxCell>
        <mxCell id="7P4M7pMutVrMYfom8Spt-50" value="Spawns" style="edgeLabel;resizable=0;html=1;;align=center;verticalAlign=middle;" connectable="0" vertex="1" parent="7P4M7pMutVrMYfom8Spt-49">
          <mxGeometry relative="1" as="geometry" />
        </mxCell>
        <mxCell id="7P4M7pMutVrMYfom8Spt-53" value="&lt;div&gt;&lt;br&gt;&lt;/div&gt;&lt;div&gt;&lt;br&gt;&lt;/div&gt;&lt;div&gt;&lt;br&gt;&lt;/div&gt;Worker" style="ellipse;whiteSpace=wrap;html=1;aspect=fixed;" vertex="1" parent="1">
          <mxGeometry x="430.03" y="250" width="80" height="80" as="geometry" />
        </mxCell>
        <mxCell id="7P4M7pMutVrMYfom8Spt-54" value="" style="shape=cylinder3;whiteSpace=wrap;html=1;boundedLbl=1;backgroundOutline=1;size=15;" vertex="1" parent="1">
          <mxGeometry x="452.53" y="253.33" width="35" height="46.67" as="geometry" />
        </mxCell>
        <mxCell id="7P4M7pMutVrMYfom8Spt-56" value="" style="endArrow=classic;html=1;rounded=0;" edge="1" parent="1" source="7P4M7pMutVrMYfom8Spt-46" target="7P4M7pMutVrMYfom8Spt-53">
          <mxGeometry width="50" height="50" relative="1" as="geometry">
            <mxPoint x="130" y="370" as="sourcePoint" />
            <mxPoint x="180" y="320" as="targetPoint" />
          </mxGeometry>
        </mxCell>
        <mxCell id="7P4M7pMutVrMYfom8Spt-57" value="&lt;div&gt;&lt;br&gt;&lt;/div&gt;&lt;div&gt;&lt;br&gt;&lt;/div&gt;&lt;div&gt;&lt;br&gt;&lt;/div&gt;&lt;div&gt;Bucket&lt;/div&gt;" style="ellipse;whiteSpace=wrap;html=1;aspect=fixed;" vertex="1" parent="1">
          <mxGeometry x="501" y="90.00000000000001" width="80" height="80" as="geometry" />
        </mxCell>
        <mxCell id="7P4M7pMutVrMYfom8Spt-58" value="" style="shape=cylinder3;whiteSpace=wrap;html=1;boundedLbl=1;backgroundOutline=1;size=15;" vertex="1" parent="1">
          <mxGeometry x="523.5" y="90.00000000000001" width="35" height="46.67" as="geometry" />
        </mxCell>
        <mxCell id="7P4M7pMutVrMYfom8Spt-59" value="" style="endArrow=classic;html=1;rounded=0;" edge="1" parent="1" source="7P4M7pMutVrMYfom8Spt-53" target="7P4M7pMutVrMYfom8Spt-57">
          <mxGeometry width="50" height="50" relative="1" as="geometry">
            <mxPoint x="388" y="348" as="sourcePoint" />
            <mxPoint x="460" y="286" as="targetPoint" />
          </mxGeometry>
        </mxCell>
        <mxCell id="7P4M7pMutVrMYfom8Spt-60" value="" style="endArrow=classic;html=1;rounded=0;" edge="1" parent="1" source="7P4M7pMutVrMYfom8Spt-57" target="7P4M7pMutVrMYfom8Spt-46">
          <mxGeometry width="50" height="50" relative="1" as="geometry">
            <mxPoint x="388" y="361" as="sourcePoint" />
            <mxPoint x="460" y="299" as="targetPoint" />
            <Array as="points">
              <mxPoint x="540" y="366" />
            </Array>
          </mxGeometry>
        </mxCell>
        <mxCell id="7P4M7pMutVrMYfom8Spt-61" value="replicate" style="endArrow=classic;startArrow=classic;html=1;rounded=0;" edge="1" parent="1" source="7P4M7pMutVrMYfom8Spt-1" target="7P4M7pMutVrMYfom8Spt-53">
          <mxGeometry width="50" height="50" relative="1" as="geometry">
            <mxPoint x="470" y="170" as="sourcePoint" />
            <mxPoint x="540" y="180" as="targetPoint" />
            <Array as="points">
              <mxPoint x="470" y="180" />
            </Array>
          </mxGeometry>
        </mxCell>
      </root>
    </mxGraphModel>
  </diagram>
</mxfile>
